<svg xmlns="http://www.w3.org/2000/svg" width="1644" height="1714" viewBox="0 0 1644 1714" version="1.1"><path d="M 764.500 55.790 C 738.100 71.056, 677.690 105.977, 630.255 133.392 L 544.009 183.237 651.755 245.418 C 711.015 279.617, 771.536 314.542, 786.247 323.028 L 812.994 338.458 813.250 492.479 L 813.506 646.500 813.753 492.487 L 814 338.473 948.055 261.091 C 1021.785 218.531, 1081.747 183.362, 1081.305 182.937 C 1080.415 182.083, 1046.224 162.342, 1035.980 156.769 C 1032.416 154.830, 1025 150.560, 1019.500 147.280 C 996.984 133.855, 813.505 27.981, 812.817 28.016 C 812.643 28.026, 790.900 40.523, 764.500 55.790 M 328.965 307.620 C 272.016 340.262, 162.175 403.567, 129.109 422.804 C 106.423 436.003, 101.018 439.540, 102.209 440.411 C 103.029 441.010, 163.383 475.925, 236.331 518 L 368.963 594.500 369.216 638.500 L 369.468 682.500 369.984 638.514 L 370.500 594.527 457.229 544.514 L 543.958 494.500 543.750 407.500 C 543.622 353.978, 543.342 332.726, 543.021 352.271 L 542.500 384.043 483.959 350.207 C 404.297 304.162, 370.643 285, 369.441 285 C 368.885 285, 350.671 295.179, 328.965 307.620 M 1239.500 294.202 C 1231.800 298.627, 1193.653 320.642, 1154.729 343.124 C 1115.805 365.606, 1083.749 384, 1083.493 384 C 1083.237 384, 1082.903 369.712, 1082.749 352.250 L 1082.471 320.500 1082.203 353 L 1081.936 385.500 1037.022 411.350 C 1012.320 425.567, 991.374 437.737, 990.476 438.394 C 989.099 439.401, 995.995 443.703, 1034.672 465.962 C 1059.877 480.468, 1081.175 492.891, 1082 493.568 C 1082.825 494.245, 1122.588 517.358, 1170.362 544.930 L 1257.224 595.061 1390.862 517.934 C 1464.363 475.514, 1524.848 440.480, 1525.272 440.081 C 1525.966 439.429, 1453.196 397.065, 1325 323.490 C 1270.025 291.938, 1259.013 285.976, 1255.895 286.078 C 1254.578 286.121, 1247.200 289.776, 1239.500 294.202 M 100.241 597.691 C 100.109 681.396, 100.338 750.091, 100.750 750.346 C 101.428 750.765, 101.424 646.314, 100.741 500.500 C 100.599 470.250, 100.374 513.986, 100.241 597.691 M 369.468 740 C 369.468 771.625, 369.595 784.563, 369.749 768.750 C 369.904 752.937, 369.904 727.062, 369.749 711.250 C 369.595 695.438, 369.468 708.375, 369.468 740 M 1210.087 824.024 C 1184.560 838.815, 1163.336 850.708, 1162.922 850.452 C 1162.509 850.197, 1162.020 850.382, 1161.835 850.864 C 1161.146 852.667, 1143.555 863.091, 1051.500 916.244 C 998.387 946.911, 989.991 951.907, 990.028 952.817 C 990.044 953.193, 995.331 956.485, 1001.778 960.134 C 1008.225 963.783, 1068.175 998.358, 1135 1036.967 C 1235.868 1095.246, 1256.874 1107.025, 1258.702 1106.333 C 1259.913 1105.875, 1320.524 1071.075, 1393.393 1029 C 1492.716 971.650, 1525.584 952.221, 1524.691 951.387 C 1524.036 950.774, 1503.700 938.887, 1479.500 924.971 C 1455.300 911.055, 1418.175 889.548, 1397 877.178 C 1375.825 864.808, 1357.265 853.970, 1355.756 853.093 C 1352.270 851.069, 1352.305 850.411, 1356 848.500 C 1357.650 847.647, 1359 846.692, 1359 846.379 C 1359 846.066, 1357.088 846.926, 1354.750 848.291 L 1350.500 850.772 1304 823.898 C 1278.425 809.117, 1257.275 797.047, 1257 797.077 C 1256.725 797.106, 1235.614 809.232, 1210.087 824.024 M 273.871 850.788 C 273.453 851.930, 267.790 855.280, 208 889.755 C 138.112 930.052, 102.069 951.079, 101.613 951.818 C 101.376 952.201, 161.328 987.226, 234.841 1029.651 L 368.500 1106.786 369.016 1150.643 L 369.532 1194.500 369.766 1150.891 L 370 1107.282 503.155 1030.391 C 576.390 988.101, 636.352 953.092, 636.405 952.592 C 636.457 952.093, 614.675 939.132, 588 923.791 C 513.860 881.152, 467.237 853.870, 465.089 851.869 C 464.021 850.873, 463.001 850.436, 462.823 850.896 C 462.424 851.929, 370.525 905, 369.136 905 C 367.845 905, 275.704 851.921, 274.871 850.697 C 274.499 850.151, 274.091 850.187, 273.871 850.788 M 100.487 1110.500 C 100.487 1194.100, 100.605 1228.152, 100.750 1186.171 C 100.894 1144.191, 100.894 1075.791, 100.750 1034.171 C 100.605 992.552, 100.487 1026.900, 100.487 1110.500 M 794 1065.307 C 783.825 1071.010, 751.650 1089.402, 722.500 1106.176 C 654.162 1145.503, 640.254 1153.275, 639.290 1152.679 C 638.856 1152.411, 638.500 1177.055, 638.500 1207.444 L 638.500 1262.698 725.756 1313.068 L 813.012 1363.437 812.756 1518.719 C 812.615 1604.123, 812.837 1674, 813.250 1674 C 813.663 1674, 814 1604.114, 814 1518.698 L 814 1363.397 898.750 1314.479 C 945.362 1287.574, 986.875 1263.353, 991 1260.654 C 995.125 1257.955, 1017.101 1245.039, 1039.836 1231.953 C 1079.669 1209.025, 1081.088 1208.106, 1078.836 1206.701 C 1076.747 1205.398, 1068.909 1200.867, 1059 1195.237 C 1057.075 1194.143, 1040.488 1184.529, 1022.140 1173.874 C 1003.792 1163.218, 985.342 1152.635, 981.140 1150.355 C 976.938 1148.075, 954.150 1135.086, 930.500 1121.490 C 850.909 1075.735, 815.734 1055.743, 814.112 1055.339 C 813.225 1055.118, 804.175 1059.604, 794 1065.307 M 369.483 1306 C 369.483 1367.325, 369.603 1392.412, 369.750 1361.750 C 369.897 1331.088, 369.897 1280.912, 369.750 1250.250 C 369.603 1219.588, 369.483 1244.675, 369.483 1306 M 542.755 1337.249 C 543.232 1375.091, 543.575 1378.575, 543.788 1347.750 C 543.904 1330.838, 543.663 1317, 543.250 1316.999 C 542.837 1316.998, 542.615 1326.111, 542.755 1337.249 M 1082.160 1326.250 C 1082.323 1335.655, 1082.719 1334.534, 1083.222 1323.248 C 1083.375 1319.810, 1083.162 1316.997, 1082.750 1316.998 C 1082.338 1316.999, 1082.072 1321.162, 1082.160 1326.250" stroke="none" fill="#d0181f" fill-rule="evenodd"/><path d="M 544.481 285 C 544.481 340.825, 544.602 363.662, 544.750 335.750 C 544.897 307.837, 544.897 262.162, 544.750 234.250 C 544.602 206.337, 544.481 229.175, 544.481 285 M 947.750 261.250 L 814 338.474 814 492.250 L 814 646.025 821.250 642.378 C 825.237 640.373, 856.400 622.730, 890.500 603.171 C 924.600 583.613, 960.487 563.099, 970.250 557.584 L 988 547.556 988 493.756 L 988 439.956 992.346 437.228 C 994.737 435.728, 1015.872 423.475, 1039.314 410 L 1081.935 385.500 1081.967 284.750 C 1081.985 229.338, 1081.888 184.006, 1081.750 184.013 C 1081.612 184.020, 1021.313 218.776, 947.750 261.250 M 1391.500 517.487 L 1257.500 594.903 1257.248 695.837 L 1256.996 796.770 1303.241 823.466 C 1328.675 838.149, 1349.786 850.238, 1350.153 850.331 C 1350.521 850.424, 1390.234 827.775, 1438.404 800 L 1525.986 749.500 1525.993 594.750 C 1525.997 509.637, 1525.888 440.016, 1525.750 440.036 C 1525.612 440.056, 1465.200 474.909, 1391.500 517.487 M 543.847 493.808 C 543.656 494.299, 505.025 516.875, 458 543.977 C 410.975 571.079, 371.991 593.759, 371.368 594.377 C 370.541 595.198, 370.066 637.137, 369.604 750.250 C 369.256 835.362, 369.234 905, 369.554 905 C 370.425 905, 462.420 851.844, 463 851.005 C 463.609 850.125, 485.709 837.155, 566.500 790.262 C 600.600 770.469, 630.136 753.299, 632.137 752.106 L 635.773 749.936 636.464 721.718 C 636.844 706.198, 637.233 660.665, 637.328 620.534 L 637.500 547.568 592.393 521.534 C 567.583 507.215, 546.590 494.919, 545.740 494.208 C 544.890 493.498, 544.038 493.318, 543.847 493.808 M 503.500 1030.209 L 370.500 1106.995 370 1151.247 C 369.725 1175.586, 369.725 1245.241, 370 1306.035 L 370.500 1416.570 456.500 1366.837 C 503.800 1339.484, 542.835 1317.081, 543.245 1317.052 C 543.655 1317.024, 544.107 1362.338, 544.250 1417.750 L 544.510 1518.500 544.755 1417.442 L 545 1316.384 591.750 1289.408 L 638.500 1262.431 638.357 1201.466 C 638.278 1167.935, 637.828 1098.408, 637.357 1046.962 L 636.500 953.423 503.500 1030.209 M 1390.780 1030.301 L 1257.060 1107.500 1257.029 1261.867 C 1257 1408.441, 1257.087 1416.209, 1258.749 1415.748 C 1259.712 1415.481, 1320.125 1380.825, 1393 1338.735 L 1525.500 1262.208 1525.753 1107.604 C 1525.892 1022.572, 1525.667 953.023, 1525.253 953.051 C 1524.839 953.079, 1464.326 987.841, 1390.780 1030.301 M 1079.959 1207.152 C 1080.640 1207.982, 1069.206 1215.048, 1039.705 1232.029 C 1017.042 1245.073, 995.125 1257.955, 991 1260.654 C 986.875 1263.353, 945.362 1287.574, 898.750 1314.479 L 814 1363.397 814 1518.280 L 814 1673.163 817.250 1671.183 C 822.106 1668.225, 1058.792 1531.579, 1071.224 1524.557 L 1081.947 1518.500 1081.990 1417.500 C 1082.081 1204.977, 1082.107 1208.659, 1080.487 1207.266 C 1079.673 1206.566, 1079.435 1206.514, 1079.959 1207.152" stroke="none" fill="#bf141b" fill-rule="evenodd"/><path d="M 544.654 338.358 C 544.012 484.649, 544.067 492.507, 545.739 494.091 C 547.674 495.924, 627.968 542.331, 641.225 549.279 C 645.776 551.664, 685.636 574.426, 729.802 599.859 C 773.969 625.293, 810.757 646.353, 811.555 646.660 C 812.820 647.145, 812.974 627.404, 812.753 492.858 L 812.500 338.500 699.500 273.260 C 637.350 237.378, 577.237 202.682, 565.915 196.156 L 545.329 184.292 544.654 338.358 M 988.336 563.627 C 988.701 631.757, 989.297 701.562, 989.659 718.748 L 990.319 749.997 999.909 755.623 C 1005.184 758.718, 1037.850 777.671, 1072.500 797.742 C 1107.150 817.813, 1141.416 837.782, 1148.648 842.117 C 1155.879 846.453, 1162.319 850, 1162.959 850 C 1163.599 850, 1185.016 837.962, 1210.552 823.250 L 1256.982 796.500 1256.741 695.694 L 1256.500 594.888 1169.500 544.610 C 1121.650 516.957, 1062.250 482.622, 1037.500 468.311 C 1012.750 454, 991.414 441.720, 990.086 441.023 L 987.672 439.754 988.336 563.627 M 101.247 595.459 L 101.500 750.135 188.500 800.437 C 236.350 828.103, 296.425 862.858, 322 877.671 L 368.500 904.603 368.753 750.090 C 368.954 627.282, 368.749 595.346, 367.753 594.449 C 366.352 593.186, 104.834 442.257, 102.486 441.356 C 101.166 440.850, 101.023 458.655, 101.247 595.459 M 101.026 1107.691 L 101.052 1262.500 230.211 1337 C 301.248 1377.975, 361.537 1412.747, 364.185 1414.270 L 369 1417.040 369 1262.215 L 369 1107.390 235.750 1030.533 C 162.462 988.261, 102.162 953.497, 101.750 953.279 C 101.338 953.061, 101.012 1022.546, 101.026 1107.691 M 989.633 1008.707 C 989.299 1038.843, 988.773 1083.750, 988.465 1108.500 L 987.904 1153.500 1021.578 1173 C 1040.098 1183.725, 1058.007 1194.044, 1061.376 1195.931 C 1064.744 1197.819, 1070.650 1201.214, 1074.500 1203.476 L 1081.500 1207.590 1082 1262.041 L 1082.500 1316.493 1159 1360.699 C 1236.544 1405.509, 1252.102 1414.376, 1255.250 1415.557 C 1256.912 1416.181, 1256.999 1408.453, 1256.976 1261.857 L 1256.952 1107.500 1124.371 1031 C 1051.451 988.925, 991.441 954.368, 991.015 954.207 C 990.589 954.045, 989.967 978.570, 989.633 1008.707 M 591.250 1289.689 L 545 1316.378 545 1417.528 L 545 1518.679 678.171 1595.590 C 751.415 1637.890, 811.715 1672.650, 812.171 1672.833 C 812.627 1673.017, 812.982 1603.492, 812.959 1518.333 L 812.919 1363.500 726.626 1313.783 C 679.165 1286.438, 639.696 1263.826, 638.917 1263.533 C 638.138 1263.239, 616.688 1275.010, 591.250 1289.689" stroke="none" fill="#920509" fill-rule="evenodd"/></svg>