<svg xmlns="http://www.w3.org/2000/svg" width="1644" height="1714" viewBox="0 0 1644 1714" version="1.1"><path d="M 947.750 261.284 L 814.001 338.500 814 492.250 C 814 576.813, 814.238 646, 814.529 646 C 816.354 646, 887.425 605.758, 969.250 558.392 L 988 547.539 988 493.924 C 988 444.100, 988.124 440.204, 989.750 438.813 C 990.712 437.990, 1011.300 425.938, 1035.500 412.031 C 1059.700 398.124, 1080.065 386.222, 1080.755 385.582 C 1081.748 384.661, 1081.957 363.568, 1081.755 284.244 L 1081.500 184.068 947.750 261.284 M 544.445 354 C 544.445 371.325, 544.582 378.413, 544.748 369.750 C 544.915 361.087, 544.915 346.913, 544.748 338.250 C 544.582 329.587, 544.445 336.675, 544.445 354 M 1390.257 518.175 L 1257.014 595.193 1257.010 695.957 L 1257.006 796.721 1303.689 823.610 C 1329.365 838.400, 1350.636 850.422, 1350.958 850.326 C 1351.492 850.167, 1461.998 786.463, 1506 760.947 L 1524.500 750.219 1525.076 735.860 C 1526.246 706.672, 1525.474 440.942, 1524.219 441.078 C 1523.824 441.121, 1463.541 475.815, 1390.257 518.175 M 543.824 493.883 C 543.646 494.336, 505.025 516.885, 458 543.992 C 410.975 571.099, 371.991 593.777, 371.368 594.389 C 370.541 595.201, 370.066 637.126, 369.604 750.250 C 369.256 835.362, 369.200 905, 369.478 905 C 370.169 905, 462.247 851.801, 463.500 850.678 C 464.050 850.185, 503.200 827.388, 550.500 800.017 L 636.500 750.254 637.236 720.377 C 637.641 703.945, 637.866 658.355, 637.736 619.067 L 637.500 547.633 592 521.407 C 566.975 506.982, 545.971 494.703, 545.324 494.119 C 544.677 493.536, 544.002 493.429, 543.824 493.883 M 503.500 1030.250 L 370.500 1107.034 370 1150.767 C 369.725 1174.820, 369.616 1244.552, 369.759 1305.727 L 370.017 1416.954 378.259 1412.103 C 385.779 1407.677, 421.286 1387.162, 510.206 1335.867 C 528.194 1325.490, 543.150 1317, 543.442 1317 C 543.734 1317, 544.098 1332.188, 544.250 1350.750 L 544.528 1384.500 544.764 1350.391 L 545 1316.283 591.500 1289.484 L 638 1262.685 638.012 1228.593 C 638.045 1134.281, 637.668 1036.924, 637.116 997.483 L 636.500 953.466 503.500 1030.250 M 1390.784 1030.367 L 1257.069 1107.500 1257.033 1262.346 L 1256.998 1417.191 1261.249 1414.728 C 1263.587 1413.374, 1285.750 1400.574, 1310.500 1386.284 C 1335.250 1371.995, 1374.625 1349.258, 1398 1335.759 C 1421.375 1322.260, 1459.625 1300.184, 1483 1286.701 L 1525.500 1262.187 1525.753 1111.975 C 1525.893 1029.358, 1525.668 959.843, 1525.253 957.498 L 1524.500 953.233 1390.784 1030.367 M 1079.643 1207 C 1080.607 1208.266, 1073.795 1212.530, 1035.967 1234.338 C 1011.317 1248.549, 989.738 1261.218, 988.012 1262.491 C 986.287 1263.764, 946.429 1287.001, 899.438 1314.129 L 814 1363.454 814 1518.342 C 814 1673.230, 814 1673.230, 816.250 1671.773 C 817.487 1670.972, 838.075 1659.023, 862 1645.221 C 885.925 1631.418, 944.875 1597.393, 993 1569.610 L 1080.500 1519.096 1081.106 1475.798 C 1081.439 1451.984, 1081.777 1382.043, 1081.856 1320.372 C 1081.992 1214.675, 1081.900 1208.166, 1080.250 1206.872 C 1078.728 1205.679, 1078.649 1205.695, 1079.643 1207 M 544.432 1488 C 544.432 1501.475, 544.574 1506.987, 544.747 1500.250 C 544.920 1493.513, 544.920 1482.487, 544.747 1475.750 C 544.574 1469.013, 544.432 1474.525, 544.432 1488" stroke="none" fill="#606060" fill-rule="evenodd"/><path d="M 544.652 338.341 C 544.278 422.725, 544.226 492.381, 544.535 493.133 C 544.993 494.247, 634.537 546.524, 638.365 547.912 C 638.989 548.138, 663.350 562.051, 692.500 578.830 C 773.854 625.656, 811.333 647, 812.205 647 C 812.642 647, 812.980 577.587, 812.956 492.750 L 812.913 338.500 680.252 262 C 607.289 219.925, 547.083 185.369, 546.461 185.209 C 545.626 184.993, 545.153 225.030, 544.652 338.341 M 101 590.738 C 101 673.779, 101.274 743.717, 101.608 746.157 C 102.216 750.594, 102.216 750.594, 130.858 767.122 C 157.376 782.424, 202.357 808.449, 321.748 877.565 L 368.500 904.631 368.753 750.104 C 368.954 627.289, 368.749 595.344, 367.753 594.439 C 367.064 593.813, 307.325 559.194, 235 517.507 C 162.675 475.821, 102.938 441.273, 102.250 440.735 C 101.251 439.952, 101 470.096, 101 590.738 M 988.006 594.491 L 988.017 748.983 991.759 751.386 C 993.816 752.707, 1010.575 762.457, 1029 773.052 C 1047.425 783.647, 1084.885 805.294, 1112.244 821.158 C 1139.604 837.021, 1162.508 850, 1163.143 850 C 1163.778 850, 1185.155 837.962, 1210.648 823.250 L 1256.999 796.500 1256.749 695.682 L 1256.500 594.865 1169.500 544.583 C 1121.650 516.928, 1061.394 482.083, 1035.598 467.150 C 1009.801 452.218, 988.538 440, 988.345 440 C 988.153 440, 988 509.521, 988.006 594.491 M 988.665 1010.762 C 988.300 1042.518, 988.001 1087.654, 988.001 1111.065 L 988 1153.629 1021.618 1173.065 C 1040.108 1183.754, 1057.320 1193.692, 1059.868 1195.149 C 1062.416 1196.607, 1068.325 1200.006, 1073 1202.703 L 1081.500 1207.606 1081.798 1262.053 L 1082.096 1316.500 1163.633 1363.500 C 1208.479 1389.350, 1247.833 1412.004, 1251.086 1413.841 L 1257 1417.182 1256.979 1262.341 L 1256.959 1107.500 1128.229 1033.213 C 1057.428 992.356, 997.211 957.599, 994.414 955.975 L 989.327 953.024 988.665 1010.762 M 101.642 960.147 C 101.289 963.527, 101.008 1032.940, 101.019 1114.397 L 101.037 1262.500 163.769 1298.650 C 227.561 1335.411, 366.884 1415.814, 368.250 1416.656 C 368.663 1416.910, 369 1347.420, 369 1262.233 L 369 1107.348 236.165 1030.674 C 163.105 988.503, 103.094 954, 102.807 954 C 102.520 954, 101.996 956.766, 101.642 960.147 M 591.243 1289.630 L 545 1316.287 545 1417.492 L 545 1518.698 678.150 1595.599 C 751.383 1637.894, 811.683 1672.650, 812.150 1672.833 C 812.618 1673.017, 812.985 1603.492, 812.967 1518.333 L 812.933 1363.500 726.717 1313.813 C 679.297 1286.485, 639.822 1263.866, 638.993 1263.549 C 638.094 1263.205, 618.838 1273.723, 591.243 1289.630" stroke="none" fill="#474747" fill-rule="evenodd"/><path d="M 809.500 31.193 C 799.537 36.436, 614.312 142.691, 558.750 175.038 C 551.737 179.121, 546.004 182.920, 546.010 183.481 C 546.015 184.041, 606.083 219.150, 679.494 261.500 L 812.969 338.500 813.238 493 L 813.506 647.500 813.753 493 L 814.001 338.500 948 261.141 C 1021.700 218.593, 1082 183.653, 1082 183.496 C 1082 183.339, 1077.388 180.613, 1071.750 177.438 C 1066.112 174.263, 1047.775 163.706, 1031 153.977 C 945.426 104.349, 814.364 28.962, 813.802 29.044 C 813.636 29.069, 811.700 30.035, 809.500 31.193 M 364.500 287.880 C 329.106 307.954, 223.731 368.395, 169.500 399.729 L 100.500 439.595 100.456 459.047 L 100.412 478.500 100.956 459.387 L 101.500 440.274 235.216 517.387 L 368.931 594.500 369.200 638.500 L 369.468 682.500 369.984 638.532 L 370.500 594.564 457.231 544.532 L 543.961 494.500 543.981 439.250 C 543.994 400.991, 543.674 384, 542.940 384 C 542.357 384, 509.620 365.383, 470.190 342.629 C 400.801 302.586, 370.078 284.976, 369.688 285.022 C 369.585 285.034, 367.250 286.320, 364.500 287.880 M 1244 292.127 C 1237.125 296.048, 1198.650 318.156, 1158.500 341.254 C 1118.350 364.353, 1064.350 395.412, 1038.500 410.275 C 1012.650 425.137, 990.920 437.827, 990.211 438.473 C 989.198 439.397, 998.494 445.175, 1033.711 465.510 C 1058.345 479.734, 1080.750 492.822, 1083.500 494.594 C 1086.250 496.366, 1126.454 519.703, 1172.843 546.454 L 1257.186 595.092 1391.093 517.797 C 1464.742 475.285, 1524.874 440.122, 1524.719 439.656 C 1524.367 438.600, 1262.092 287.063, 1258 285.551 C 1257.168 285.243, 1250.937 288.170, 1244 292.127 M 369.468 740 C 369.468 771.625, 369.595 784.563, 369.749 768.750 C 369.904 752.937, 369.904 727.062, 369.749 711.250 C 369.595 695.438, 369.468 708.375, 369.468 740 M 1210.060 823.993 C 1172.968 845.458, 1163.260 850.674, 1161.832 849.910 C 1160.450 849.171, 1160.170 849.280, 1160.598 850.394 C 1161.263 852.128, 1152.827 857.221, 1068.500 905.990 C 985.535 953.971, 988.684 952.095, 989.645 952.953 C 991.631 954.727, 1256.336 1106.996, 1257.368 1106.958 C 1259.030 1106.897, 1524.342 953.474, 1524.714 952.358 C 1524.887 951.838, 1498.135 935.934, 1465.265 917.017 C 1393.846 875.915, 1354.863 853.190, 1353.500 851.865 C 1352.839 851.222, 1353.349 850.198, 1355 848.847 C 1357.500 846.802, 1357.500 846.802, 1354 848.770 C 1350.500 850.738, 1350.500 850.738, 1304.010 823.869 C 1278.440 809.091, 1257.290 797.027, 1257.010 797.060 C 1256.729 797.093, 1235.602 809.213, 1210.060 823.993 M 271.478 852.522 C 268.527 854.746, 221.380 882.288, 144.798 926.524 C 100.310 952.221, 101.239 951.640, 102.554 952.952 C 103.074 953.472, 163.125 988.319, 236 1030.391 L 368.500 1106.886 369.016 1150.693 L 369.532 1194.500 369.766 1150.910 L 370 1107.320 503.250 1030.395 C 576.538 988.086, 636.464 953.027, 636.419 952.485 C 636.374 951.943, 613.199 938.119, 584.919 921.765 C 505.262 875.701, 472.943 856.826, 467.812 853.374 C 465.220 851.629, 462.964 850.517, 462.800 850.901 C 462.409 851.814, 370.265 905, 369.074 905 C 368.076 905, 281.045 854.993, 276.978 852.082 C 274.521 850.323, 274.380 850.335, 271.478 852.522 M 757.500 1085.632 C 647.196 1149.298, 639.118 1153.854, 638.645 1152.675 C 638.386 1152.029, 638.136 1176.477, 638.090 1207.004 L 638.006 1262.508 725.509 1313.004 L 813.012 1363.500 812.756 1518.750 C 812.615 1604.138, 812.837 1674, 813.250 1674 C 813.663 1674, 814 1604.127, 814 1518.727 L 814 1363.454 899.438 1314.129 C 946.429 1287.001, 986.287 1263.764, 988.012 1262.491 C 989.738 1261.218, 1011.315 1248.549, 1035.962 1234.338 C 1060.610 1220.127, 1080.593 1208.191, 1080.368 1207.814 C 1080.144 1207.437, 1076.032 1204.893, 1071.231 1202.161 C 1056.587 1193.829, 1055.387 1193.139, 1019.389 1172.366 C 840.431 1069.095, 815.569 1054.990, 812.548 1055.021 C 811.422 1055.032, 786.650 1068.808, 757.500 1085.632 M 369.483 1306 C 369.483 1367.325, 369.603 1392.412, 369.750 1361.750 C 369.897 1331.088, 369.897 1280.912, 369.750 1250.250 C 369.603 1219.588, 369.483 1244.675, 369.483 1306 M 544.430 1441 C 544.430 1453.925, 544.573 1459.213, 544.747 1452.750 C 544.921 1446.287, 544.921 1435.713, 544.747 1429.250 C 544.573 1422.787, 544.430 1428.075, 544.430 1441" stroke="none" fill="#696969" fill-rule="evenodd"/></svg>